<svg id="Capa_1" enable-background="new 0 0 512 512" height="512" viewBox="0 0 512 512" width="512" xmlns="http://www.w3.org/2000/svg"><g><path d="m376.234 304.538s.042-.202.164-.573c-.329 1-8.532 24.611-50.624 34.462-12.1 2.832-19.613 14.936-16.781 27.035 2.428 10.376 11.673 17.378 21.889 17.378 1.089 0 2.19-.089 3.294-.252-1.792 4.235-2.31 9.054-1.182 13.875 2.428 10.375 11.674 17.378 21.889 17.378 1.698 0 3.422-.193 5.146-.597 55.616-13.016 79.459-49.863 84.374-68.294z" fill="#926f72"/><g><path d="m266.875 131.612c-3.392 9.647-17.245 8.632-19.263-1.394-4.654-23.122-14.052-43.37-26.527-59.457l-144.648 113.872c20.94 6.898 34.89 26.698 34.34 48.739h.004c-.965 38.557 12.887 68.929 35.077 88.489l6.618 71.547c1.079 11.669 10.887 20.43 22.378 20.43.694 0 1.394-.032 2.099-.098 12.374-1.145 21.477-12.104 20.332-24.477l-4.115-44.49c6.709 1.281 13.643 1.939 20.731 1.939 4.795 0 9.629-.309 14.483-.906l-4.02 43.457c-1.145 12.373 7.958 23.332 20.332 24.477.706.065 1.404.097 2.099.097 11.49 0 21.298-8.76 22.378-20.429l5.754-62.203c12.11-6.139 23.99-14.055 35.351-23.667 15.567-11.676 38.968-9.993 53.68 5.086l47.568-125.47-31.759-136.675c-43.951-7.532-90.034 16.124-112.892 81.133z" fill="#926f72"/><path d="m481.7 143.406c-18.956-37.67-52.027-84.371-101.933-92.927-73.788 68.184-82.466 183.282-15.811 262.144 1.209 1.24 2.367 2.558 3.45 3.979 13.944 18.299 35.962 30.109 60.745 30.109 5.478 0 10.926-.609 16.252-1.763.338 3.582.727 7.698 1.186 12.545 3.915 54.038-36.509 106.874-102.261 114.512-7.088.823-12.654 6.778-12.798 14.111-.156 8.001 6.202 14.771 14.205 14.771 87.033 0 159.766-64.798 159.766-155.35v-78.956c-.001-35.812-1.612-81.067-22.801-123.175z" fill="#ad888b"/></g><g><g><path d="m8.579 48.162c6.883 21.505 28.863 34.016 56.094 27.421 6.587-27.322-5.889-49.266-27.406-56.124-17.519-5.583-34.293 11.191-28.688 28.703z" fill="#ffb5c0"/><path d="m50.554 84.822c-23.083 0-42.226-12.84-49.118-34.374-3.451-10.781-.576-22.503 7.502-30.59 8.083-8.094 19.812-10.983 30.607-7.544 26.298 8.382 39.629 35.123 32.419 65.028-.659 2.734-2.792 4.869-5.526 5.531-5.427 1.314-10.754 1.949-15.884 1.949zm-34.832-38.947c5.593 17.474 22.382 26.489 42.576 23.338 3.147-20.238-5.857-37.046-23.309-42.608-5.506-1.752-11.277-.314-15.439 3.853-4.156 4.16-5.587 9.924-3.828 15.417z" fill="#926f72"/></g><g><path d="m226.379 48.162c-6.883 21.505-28.863 34.016-56.094 27.421-6.587-27.322 5.889-49.266 27.406-56.124 17.519-5.583 34.293 11.191 28.688 28.703z" fill="#ffb5c0"/><path d="m184.404 84.822c-5.131 0-10.456-.634-15.884-1.949-2.733-.662-4.867-2.797-5.526-5.531-7.21-29.905 6.121-56.646 32.419-65.028 10.794-3.441 22.523-.55 30.607 7.544 8.078 8.087 10.953 19.809 7.502 30.59-6.892 21.533-26.038 34.374-49.118 34.374zm-7.744-15.609c20.193 3.15 36.983-5.864 42.576-23.338 1.758-5.493.327-11.258-3.829-15.418-4.163-4.168-9.937-5.608-15.439-3.853-17.451 5.563-26.455 22.371-23.308 42.609zm49.719-21.051h.01z" fill="#ad888b"/></g></g><g><path d="m144.107 13.77c-8.521-1.732-17.431-2.657-26.607-2.657-60.751 0-110 40.294-110 90 0 49.068 47.994 88.96 107.669 89.976.775.013 1.552.024 2.331.024 60.751 0 110-40.294 110-90 0-42.198-35.498-77.608-83.393-87.343z" fill="#ffedee"/><path d="m73.5 111.113c0-41.992 28.537-78.529 70.607-97.343-8.521-1.732-17.431-2.657-26.607-2.657-60.751 0-110 40.294-110 90 0 49.068 47.994 88.96 107.669 89.976-25.681-20.175-41.669-48.547-41.669-79.976z" fill="#ffd4d5"/></g><g><path d="m117.5 41.114c-42.113 0-80 26.004-80 59.999 0 .168.001.337.003.505.23 20.157 25.921 28.431 38.201 12.445 10.892-14.179 25.719-22.949 41.797-22.949 16.441 0 31.009 8.864 41.67 22.782 12.323 16.086 38.103 7.984 38.326-12.278.002-.168.003-.336.003-.505 0-32.543-35.944-59.999-80-59.999z" fill="#ad888b"/><path d="m73.651 116.395c-.099-1.741-.151-3.52-.151-5.282 0-26.06 10.999-50.027 29.393-68.953-35.879 5.173-65.393 28.951-65.393 58.953 0 .168.001.337.003.505.218 19.098 23.28 27.542 36.148 14.777z" fill="#926f72"/></g><path d="m137.767 126.094c0-8.284-8.954-15-20-15s-20 6.716-20 15 8.954 19 20 19 20-10.716 20-19z" fill="#ff8e9e"/><g><path d="m441.471 460.861c-26.886 20.975-61.24 32.526-96.736 32.526-3.699 0-6.708-3.133-6.708-6.983l.002-.142c.067-3.48 2.718-6.406 6.164-6.807 31.803-3.694 59.291-17.349 79.493-39.487 22.056-24.169 31.839-55.516 29.369-83.181l-1.186-12.545c-.426-4.501-4.71-7.59-9.097-6.615-25.112 5.421-51.91-3.043-69.333-25.477-21.351-25.777-52.825-23.2-68.007-10.339-10.802 9.138-22.207 16.776-33.898 22.702-2.3 1.166-3.839 3.431-4.077 5.999l-5.754 62.203c-.762 8.242-7.935 14.319-16.318 13.555-8.303-.769-14.322-8.011-13.554-16.318l4.02-43.457c.441-4.773-3.654-8.723-8.387-8.134-11.221 1.383-22.308 1.065-32.888-.956-4.896-.93-9.335 3.087-8.875 8.058l4.115 44.488c.816 8.861-6.059 16.385-14.966 16.385-7.78 0-14.188-5.855-14.906-13.62l-6.618-71.547c-.176-1.905-1.074-3.671-2.509-4.936-9.701-8.551-17.414-19.077-22.924-31.285-1.704-3.775-6.144-5.456-9.921-3.751-3.775 1.704-5.455 6.146-3.75 9.921 5.964 13.215 14.177 24.752 24.437 34.335l6.35 68.644c1.436 15.529 14.266 27.239 29.842 27.239 17.737 0 31.534-15.028 29.903-32.765l-3.237-34.998c6.119.636 12.291.796 18.573.478l-3.193 34.523c-1.528 16.586 10.497 31.096 27.107 32.632 16.552 1.533 31.099-10.462 32.638-27.109l5.378-58.137c11.364-6.11 22.422-13.682 32.924-22.546 11.456-8.464 29.216-8.54 42.072 3.022-6.695 5.245-17.105 10.979-32.948 14.687-16.106 3.771-26.144 19.94-22.375 36.047 2.718 11.613 12.105 20.208 23.269 22.516-1.095 19.997 17.202 35.441 36.779 30.859 30.058-7.035 57.857-22.605 76.183-47.129-4.021 41.547-36.633 84.306-95.46 91.139-10.863 1.262-19.217 10.468-19.431 21.409l-.004.439c0 12.122 9.738 21.983 21.708 21.983 38.823 0 76.454-12.679 105.963-35.7 3.266-2.548 3.848-7.261 1.3-10.526s-7.266-3.848-10.529-1.299zm-125.175-97.109c-1.885-8.053 3.134-16.139 11.188-18.023 18.808-4.402 31.359-11.525 39.486-18.047 5.663 6.069 12.101 11.192 19.109 15.268-6.413 6.58-17.889 14.464-38.013 19.174-7.666 1.795-14.29 6.573-18.469 13.129-6.296-.565-11.809-5.124-13.301-11.501zm42.025 42.188c-12.191 2.846-21.917-9.376-17.238-20.432 1.894-4.475 5.685-7.675 10.401-8.779 27.128-6.349 41.512-18.299 48.813-27.221 10.286 3.604 21.246 5.168 32.287 4.572-9.375 17.616-31.917 41.949-74.263 51.86z"/><path d="m488.399 140.035c-25.925-51.519-67.132-98.402-124.3-98.402-51.632 0-87.126 38.648-104.3 87.492-.863 2.459-4.308 2.234-4.834-.387-7.813-38.819-25.603-58.237-28.517-64.218 12.428-17.088 10.26-33.984-.406-44.662-10.604-10.616-27.469-12.921-44.624-.506-18.651-10.034-40.743-15.739-63.918-15.739-23.558 0-45.516 5.787-63.927 15.732-17.114-12.38-33.982-10.134-44.615.512-12.544 12.559-11.024 30.093-.38 44.7-5.526 11.295-8.578 23.634-8.578 36.556 0 43.128 32.948 77.094 74.09 90.644 17.571 5.788 29.631 22.31 29.189 41.433-.253 8.389.307 18.188 1.827 27.403.67 4.063 4.501 6.852 8.621 6.18 4.087-.675 6.854-4.534 6.179-8.621-2.116-12.829-1.613-22.909-1.613-26.038 0-12.511-4.022-24.278-11.022-33.878 65.388 4.66 120.941-35.508 127.149-87.422 2.427 6.713 4.394 13.697 5.84 20.883 3.517 17.492 27.782 19.211 33.69 2.404 17.311-49.232 50.169-77.468 90.149-77.468 51.126 0 87.924 44.485 110.901 90.145 19.335 38.421 22 80.286 22 119.804v78.956c-.001 36.182-12.065 69.276-34.889 95.704-2.707 3.136-2.36 7.871.774 10.579 3.136 2.706 7.871 2.36 10.579-.774 25.209-29.192 38.534-65.676 38.535-105.509v-78.956c.001-41.368-2.858-85.33-23.6-126.547zm-272.97-109.577c5.674 5.681 5.554 12.347 2.189 19.594-6.058-8.154-13.489-15.458-21.993-21.724 7.32-3.441 14.061-3.619 19.804 2.13zm-195.858 0c5.705-5.713 12.431-5.602 19.826-2.12-8.538 6.316-15.961 13.646-21.992 21.764-3.417-7.33-3.483-13.989 2.166-19.644zm97.929 153.155c-55.294 0-102.5-35.776-102.5-82.5 0-45.491 45.981-82.5 102.5-82.5 43.404 0 82.269 22.167 96.711 55.158 3.841 8.776 5.789 17.975 5.789 27.342 0 45.49-45.981 82.5-102.5 82.5z"/><path d="m117.5 33.614c-44.969 0-87.5 28.164-87.5 67.499.163 28.246 35.152 38.996 51.652 17.519 9.916-12.909 22.647-20.018 35.849-20.018 13.229 0 25.914 7.047 35.716 19.843 16.562 21.621 51.62 10.956 51.783-17.343 0-37.9-40.59-67.5-87.5-67.5zm47.625 75.72c-12.707-16.586-29.62-25.721-47.624-25.721-17.968 0-34.924 9.191-47.744 25.88-7.871 10.245-24.676 5.339-24.756-8.381 0-28.458 33.201-52.499 72.5-52.499s72.499 24.042 72.499 52.5c-.08 13.856-16.972 18.54-24.875 8.221z"/><path d="m145.267 126.094c0-12.617-12.08-22.5-27.5-22.5s-27.5 9.883-27.5 22.5c0 9.475 7.184 20.134 17.599 24.485-1.34 1.246-3.129 2.016-5.099 2.016-4.142 0-7.5 3.357-7.5 7.5s3.358 7.5 7.5 7.5c5.758 0 11.016-2.177 15-5.748 3.984 3.571 9.242 5.748 15 5.748 4.142 0 7.5-3.357 7.5-7.5s-3.358-7.5-7.5-7.5c-1.97 0-3.76-.769-5.099-2.016 10.415-4.351 17.599-15.01 17.599-24.485zm-27.5 11.5c-6.658 0-12.5-7.168-12.5-11.5 0-3.541 5.346-7.5 12.5-7.5s12.5 3.959 12.5 7.5c0 4.332-5.842 11.5-12.5 11.5z"/><path d="m63.051 78.293c-4.142 0-7.5 3.358-7.5 7.5v12c0 4.142 3.358 7.5 7.5 7.5s7.5-3.358 7.5-7.5v-12c0-4.142-3.358-7.5-7.5-7.5z"/><path d="m164.449 85.793v12c0 4.142 3.358 7.5 7.5 7.5s7.5-3.358 7.5-7.5v-12c0-4.142-3.358-7.5-7.5-7.5s-7.5 3.358-7.5 7.5z"/></g></g></svg>