<svg id="Capa_1" enable-background="new 0 0 504.5 504.5" height="512" viewBox="0 0 504.5 504.5" width="512" xmlns="http://www.w3.org/2000/svg"><g><path d="m376.234 300.9s.042-.202.164-.573c-.329 1-8.532 24.611-50.624 34.462-12.1 2.832-19.613 14.936-16.781 27.035 2.428 10.376 11.673 17.378 21.889 17.378 1.089 0 2.19-.089 3.294-.252-1.792 4.235-2.31 9.054-1.182 13.875 2.428 10.375 11.674 17.378 21.889 17.378 1.698 0 3.422-.193 5.146-.597 55.616-13.016 79.459-49.863 84.374-68.294z" fill="#926f72"/><g><path d="m266.875 127.975c-3.392 9.647-17.245 8.632-19.263-1.394-4.654-23.122-14.052-43.37-26.527-59.457l-144.648 113.872c20.94 6.898 34.89 26.698 34.34 48.739h.004c-.965 38.557 12.887 68.929 35.077 88.489l6.618 71.547c1.079 11.669 10.887 20.43 22.378 20.43.694 0 1.394-.032 2.099-.098 12.374-1.145 21.477-12.104 20.332-24.477l-4.115-44.49c6.709 1.281 13.643 1.939 20.731 1.939 4.795 0 9.629-.309 14.483-.906l-4.02 43.457c-1.145 12.373 7.958 23.332 20.332 24.477.706.065 1.404.097 2.099.097 11.49 0 21.298-8.76 22.378-20.429l5.754-62.203c12.11-6.139 23.99-14.055 35.351-23.667 15.567-11.676 38.968-9.993 53.68 5.086l47.568-125.47-31.759-136.675c-43.951-7.532-90.034 16.124-112.892 81.133z" fill="#926f72"/><path d="m481.7 139.769c-18.956-37.67-52.027-84.371-101.933-92.927-73.788 68.184-82.466 183.282-15.811 262.144 1.209 1.24 2.367 2.558 3.45 3.979 13.944 18.299 35.962 30.109 60.745 30.109 5.478 0 10.926-.609 16.252-1.763.338 3.582.727 7.698 1.186 12.545 3.915 54.038-36.509 106.874-102.261 114.512-7.088.823-12.654 6.778-12.798 14.111-.156 8.001 6.202 14.771 14.205 14.771 87.033 0 159.766-64.798 159.766-155.35v-78.956c-.001-35.812-1.612-81.067-22.801-123.175z" fill="#ad888b"/></g><g><g><path d="m8.579 44.525c6.883 21.505 28.863 34.016 56.094 27.421 6.587-27.322-5.889-49.266-27.406-56.124-17.519-5.584-34.293 11.191-28.688 28.703z" fill="#ffb5c0"/><path d="m50.554 81.185c-23.083 0-42.226-12.84-49.118-34.374-3.451-10.781-.576-22.503 7.502-30.59 8.083-8.094 19.812-10.983 30.607-7.544 26.298 8.382 39.629 35.123 32.419 65.028-.659 2.734-2.792 4.869-5.526 5.531-5.427 1.314-10.754 1.949-15.884 1.949zm-34.832-38.947c5.593 17.474 22.382 26.489 42.576 23.338 3.147-20.238-5.857-37.046-23.309-42.608-5.506-1.752-11.277-.314-15.439 3.853-4.156 4.159-5.587 9.924-3.828 15.417z" fill="#926f72"/></g><g><path d="m226.379 44.525c-6.883 21.505-28.863 34.016-56.094 27.421-6.587-27.322 5.889-49.266 27.406-56.124 17.519-5.584 34.293 11.191 28.688 28.703z" fill="#ffb5c0"/><path d="m184.404 81.185c-5.131 0-10.456-.634-15.884-1.949-2.733-.662-4.867-2.797-5.526-5.531-7.21-29.905 6.121-56.646 32.419-65.028 10.794-3.441 22.523-.55 30.607 7.544 8.078 8.087 10.953 19.809 7.502 30.59-6.892 21.533-26.038 34.374-49.118 34.374zm-7.744-15.609c20.193 3.15 36.983-5.864 42.576-23.338 1.758-5.493.327-11.258-3.829-15.418-4.163-4.168-9.937-5.608-15.439-3.853-17.451 5.563-26.455 22.371-23.308 42.609zm49.719-21.052h.01z" fill="#ad888b"/></g></g><g><path d="m144.107 10.133c-8.521-1.732-17.431-2.657-26.607-2.657-60.751 0-110 40.294-110 90 0 49.068 47.994 88.96 107.669 89.976.775.013 1.552.024 2.331.024 60.751 0 110-40.294 110-90 0-42.198-35.498-77.608-83.393-87.343z" fill="#ffedee"/><path d="m73.5 107.476c0-41.992 28.537-78.529 70.607-97.343-8.521-1.732-17.431-2.657-26.607-2.657-60.751 0-110 40.294-110 90 0 49.068 47.994 88.96 107.669 89.976-25.681-20.175-41.669-48.547-41.669-79.976z" fill="#ffd4d5"/></g><g><path d="m117.5 37.476c-42.113 0-80 26.004-80 59.999 0 .168.001.337.003.505.23 20.157 25.921 28.431 38.201 12.445 10.892-14.179 25.719-22.949 41.797-22.949 16.441 0 31.009 8.864 41.67 22.782 12.323 16.086 38.103 7.984 38.326-12.278.002-.168.003-.336.003-.505 0-32.542-35.944-59.999-80-59.999z" fill="#ad888b"/><path d="m73.651 112.758c-.099-1.741-.151-3.52-.151-5.282 0-26.06 10.999-50.027 29.393-68.953-35.879 5.173-65.393 28.951-65.393 58.953 0 .168.001.337.003.505.218 19.098 23.28 27.542 36.148 14.777z" fill="#926f72"/></g><g fill="#313d40"><path d="m63.051 74.656c-4.142 0-7.5 3.358-7.5 7.5v12c0 4.142 3.358 7.5 7.5 7.5s7.5-3.358 7.5-7.5v-12c0-4.142-3.358-7.5-7.5-7.5z"/><path d="m171.949 74.656c-4.142 0-7.5 3.358-7.5 7.5v12c0 4.142 3.358 7.5 7.5 7.5s7.5-3.358 7.5-7.5v-12c0-4.142-3.358-7.5-7.5-7.5z"/></g><path d="m132.767 148.957c-4.136 0-7.5-3.364-7.5-7.5v-9.824h-15v9.824c0 4.136-3.364 7.5-7.5 7.5-4.142 0-7.5 3.357-7.5 7.5s3.358 7.5 7.5 7.5c5.758 0 11.016-2.177 15-5.748 3.984 3.571 9.242 5.748 15 5.748 4.142 0 7.5-3.357 7.5-7.5s-3.358-7.5-7.5-7.5z" fill="#926f72"/><path d="m137.767 122.457c0-8.284-8.954-15-20-15s-20 6.716-20 15 8.954 19 20 19 20-10.716 20-19z" fill="#ff8e9e"/></g></svg>