<?xml version="1.0" encoding="iso-8859-1"?>
<!-- Generator: Adobe Illustrator 16.0.0, SVG Export Plug-In . SVG Version: 6.00 Build 0)  -->
<!DOCTYPE svg PUBLIC "-//W3C//DTD SVG 1.1//EN" "http://www.w3.org/Graphics/SVG/1.1/DTD/svg11.dtd">
<svg version="1.1" id="Capa_1" xmlns="http://www.w3.org/2000/svg" xmlns:xlink="http://www.w3.org/1999/xlink" x="0px" y="0px"
	 width="79.977px" height="79.977px" viewBox="0 0 79.977 79.977" style="enable-background:new 0 0 79.977 79.977;"
	 xml:space="preserve">
<g>
	<g>
		<path style="fill:#246A73" d="M66.535,13.693H52.589V6.468c0-1.484-1.203-2.688-2.688-2.688H30.075c-1.485,0-2.688,1.204-2.688,2.688v7.225H13.441
			C6.018,13.693,0,19.712,0,27.134v29.21l0.022-0.002c0.077,0.144,8.041,14.229,19.854,19.509l-0.154,0.345L60.4,75.593
			c11.383-5.086,18.959-18.447,19.576-19.563V27.134C79.976,19.712,73.958,13.693,66.535,13.693z M47.213,13.693h-14.45V9.157
			h14.449L47.213,13.693L47.213,13.693z"/>
		<path style="fill:#246A73" d="M0,58.446v4.309c0,7.424,6.018,13.441,13.441,13.441h4.1C8.537,71.398,2.268,62.175,0,58.446z"/>
		<path style="fill:#246A73" d="M62.242,76.196h4.293c7.423,0,13.44-6.018,13.44-13.441v-4.08C77.441,62.741,71.136,71.671,62.242,76.196z"/>
	</g>
</g>
<g>
</g>
<g>
</g>
<g>
</g>
<g>
</g>
<g>
</g>
<g>
</g>
<g>
</g>
<g>
</g>
<g>
</g>
<g>
</g>
<g>
</g>
<g>
</g>
<g>
</g>
<g>
</g>
<g>
</g>
</svg>
