<svg id="Layer_1" enable-background="new 0 0 512 512" height="512" viewBox="0 0 512 512" width="512" xmlns="http://www.w3.org/2000/svg"><g><g><g><g id="XMLID_1292_"><g id="XMLID_1293_"><g id="XMLID_1294_"><g id="XMLID_1295_"><g id="XMLID_1296_"><g id="XMLID_1297_"><g id="XMLID_1298_"><g id="XMLID_1299_"><g id="XMLID_1300_"><g id="XMLID_1309_"><g id="XMLID_1310_"><g id="XMLID_1311_"><g id="XMLID_1312_"><g id="XMLID_1313_"><path id="XMLID_1314_" d="m0 256c0-141.385 114.615-256 256-256s256 114.615 256 256c0 61.764-21.873 118.42-58.296 162.643 0 0-118.084 18.357-197.704 18.357-79.529 0-197.542-18.16-197.542-18.16-36.52-44.252-58.458-100.984-58.458-162.84z" fill="#6ae1db"/></g></g></g></g></g></g></g></g></g></g></g></g></g></g></g></g><path d="m453.704 418.643c36.423-44.223 58.296-100.879 58.296-162.643 0-14.506-1.226-28.724-3.544-42.572l-141.842-140.379-273.663 350.624c40.987 5.38 110.435 13.327 163.049 13.327 79.62 0 197.704-18.357 197.704-18.357z" fill="#2fc1b6"/><g><path d="m397.409 135c-23.825-113-142.909-102-142.909-102s-119.084-11-142.909 102-40.237 206 95.887 228h94.044c136.124-22 119.712-115 95.887-228z" fill="#fd9827"/><path d="m301.52 363h-46.69v-330.03c6.86-.53 119.48-7.52 142.58 102.03 23.82 113 40.24 206-95.89 228z" fill="#ea7b0c"/><g><path d="m307.32 273.5v65.49l-52.43 82.01-.06-.08-50.57-67.11v-80.31z" fill="#ffc48a"/><path d="m307.32 273.5v65.49l-52.43 82.01h-.06v-147.5z" fill="#ffaf78"/></g><path d="m341.52 442.66h-171.16l15.63-103.67h139.35z" fill="#ffdaae"/><path d="m341.52 442.66h-86.69v-103.67h70.51z" fill="#ffc48a"/><path d="m353.303 149.329c-4.158-61.206-55.244-83.829-98.472-83.829-43.227 0-94.314 22.623-98.472 83.829-11.186 2.095-19.124 16.303-17.879 27.797l1.926 26.147c1.307 12.066 12.247 20.868 24.313 19.561l2.078-.225c24.699 64.292 63.446 80.844 88.034 84.605 24.588-3.76 63.335-20.313 88.034-84.605l2.078.225c12.065 1.307 23.006-7.496 24.313-19.561l1.926-26.147c1.245-11.494-6.693-25.702-17.879-27.797z" fill="#ffdaae"/><g><path d="m353.303 149.329c11.186 2.095 19.124 16.303 17.879 27.797l-1.926 26.147c-1.307 12.066-12.248 20.868-24.313 19.561l-2.078-.225c-24.699 64.292-63.446 80.844-88.034 84.605v-241.714c43.228 0 94.314 22.623 98.472 83.829z" fill="#ffc48a"/></g><path d="m279.041 43.053c-.484.086-.965.176-1.444.271-15.008 2.969-30.471 2.969-45.479 0-.479-.095-.96-.185-1.444-.271-50.092-8.911-101.091 30.469-101.091 81.347v44.288c105.755-13.5 125.248-75.138 125.248-75.138s18.831 61.638 124.585 75.138v-44.288c.001-50.879-50.283-90.258-100.375-81.347z" fill="#fd9827"/><path d="m379.42 124.4v44.29c-105.76-13.5-124.59-75.14-124.59-75.14v-48c7.63 0 15.26-.74 22.77-2.23.48-.09.96-.18 1.44-.27 50.09-8.91 100.38 30.47 100.38 81.35z" fill="#ea7b0c"/><path d="m453.7 397.34v21.3c-14 17-30.16 32.16-48.04 45.05-.5.38-1 .73-1.5 1.09-10.74 7.65-22.11 14.48-34 20.41-1.44.73-2.9 1.44-4.36 2.13-33.27 15.82-70.5 24.68-109.8 24.68s-76.53-8.86-109.8-24.68c-1.46-.69-2.92-1.4-4.36-2.13-11.89-5.93-23.26-12.76-34-20.41-.5-.36-1-.71-1.5-1.09-17.88-12.89-34.04-28.05-48.04-45.05v-21.3c0-.7.01-1.4.04-2.09 1.09-31.55 27.67-56.26 59.25-56.26h86.67v9.48c0 28.46 23.07 51.54 51.53 51.54s51.53-23.08 51.53-51.54v-9.48h87.09c31.58 0 58.16 24.71 59.25 56.26.03.69.04 1.39.04 2.09z" fill="#fc445f"/><path d="m365.8 487.32c1.46-.69 2.92-1.4 4.36-2.13 11.89-5.93 23.26-12.76 34-20.41.5-.36 1-.71 1.5-1.09 17.88-12.89 34.04-28.05 48.04-45.05v-21.3c0-.7-.01-1.4-.04-2.09-1.09-31.55-27.67-56.26-59.25-56.26h-87.09v9.48c0 28.46-23.07 51.54-51.53 51.54-.322 0-.639-.018-.96-.024v111.998c.391.002.779.016 1.17.016 39.3 0 76.53-8.86 109.8-24.68z" fill="#e00f5a"/></g></g></svg>