<svg id="Capa_1" enable-background="new 0 0 512 512" height="512" viewBox="0 0 512 512" width="512" xmlns="http://www.w3.org/2000/svg"><g><path d="m438.309 261.64c0-.001-.001-.002-.001-.003-5.912-15.022-10.385-30.657-13.295-46.466-2.042-11.123-3.3-21.245-3.847-30.944-2.784-49.43-20.874-95.498-50.939-129.717-30.884-35.152-71.451-54.51-114.227-54.51-44.77 0-86.686 20.947-118.025 58.979-27.744 33.66-44.485 78.14-47.141 125.248-.546 9.695-1.804 19.817-3.848 30.948-1.423 7.759-3.277 15.675-5.502 23.491-2.259 7.855-4.879 15.581-7.793 22.974-3.352 8.521-5.051 17.558-5.051 26.86 0 29.779 14.28 54.623 37.27 64.836 1.917.852 3.992 1.292 6.09 1.292h288c2.096 0 4.169-.439 6.085-1.29 7.868-3.492 12.32-8.78 15.897-13.029.925-1.099 1.798-2.136 2.712-3.128 12.036-13.07 18.665-30.359 18.665-48.681 0-9.302-1.699-18.339-5.05-26.86z" fill="#9d5015"/><path d="m400 354.628c2.096 0 4.169-.439 6.085-1.29 7.868-3.492 12.32-8.78 15.897-13.029.925-1.099 1.798-2.136 2.712-3.128 12.036-13.07 18.665-30.359 18.665-48.681 0-9.302-1.699-18.339-5.051-26.86 0-.001-.001-.002-.001-.003-5.912-15.022-10.385-30.657-13.295-46.466-2.042-11.123-3.3-21.245-3.847-30.944-2.784-49.43-20.874-95.498-50.939-129.717-30.883-35.152-71.45-54.51-114.226-54.51v354.628z" fill="#804111"/><path d="m256 392.71c-3.231 0-6.462-1.041-9.161-3.123l-72.189-55.68c-4.566-3.522-6.709-9.35-5.513-14.991 1.197-5.641 12.574-11.814 18.176-13.178l16.657-4.056v-28.962c0-5.196 2.689-10.022 7.107-12.756 4.418-2.733 9.937-2.987 14.587-.667 9.598 4.787 19.808 7.213 30.346 7.213 10.529 0 20.734-2.424 30.331-7.206 4.651-2.317 10.169-2.062 14.584.671 4.418 2.734 7.105 7.56 7.105 12.754v28.952l16.671 4.057c5.606 1.364 17.109 7.57 18.303 13.215s-.955 11.475-5.528 14.994l-72.33 55.65c-2.695 2.076-5.921 3.113-9.146 3.113z" fill="#f1d0a4"/><path d="m324.702 305.739-16.671-4.057v-28.952c0-5.195-2.688-10.02-7.105-12.754-4.415-2.733-9.933-2.989-14.584-.671-9.597 4.781-19.802 7.206-30.331 7.206-.003 0-.007 0-.01 0v126.2c3.225 0 6.451-1.037 9.146-3.111l72.33-55.65c4.573-3.519 6.723-9.349 5.528-14.994s-12.697-11.852-18.303-13.217z" fill="#f1ba87"/><path d="m256 286.127c-13.42 0-26.471-3.204-38.788-9.523-37.686-19.328-62.89-65.302-64.207-117.125-.103-4.043 1.432-7.957 4.256-10.853 2.823-2.896 6.695-4.528 10.739-4.528h.012c39.72 0 75.426-49.191 75.782-49.688 2.822-3.939 7.388-6.284 12.227-6.273 4.846.009 9.396 2.349 12.204 6.298.342.478 36.015 49.674 75.779 49.683 4.044.001 7.916 1.635 10.738 4.531 2.823 2.896 4.356 6.81 4.253 10.853-1.326 51.808-26.529 97.773-64.207 117.103-12.317 6.318-25.368 9.522-38.788 9.522z" fill="#ffe3c1"/><path d="m344.004 144.118c-39.765-.009-75.438-49.205-75.779-49.683-2.809-3.949-7.358-6.289-12.204-6.298-.007 0-.014.001-.021.001v197.99c13.42 0 26.471-3.204 38.788-9.523 37.678-19.329 62.881-65.294 64.207-117.103.104-4.043-1.43-7.956-4.253-10.853-2.822-2.897-6.694-4.53-10.738-4.531z" fill="#f1d0a4"/><path d="m323.25 512h-135.937c-8.284 0-5.132-203.738 0-206.261l68.687 53.036 68.702-53.036c5.128 2.528 6.827 206.261-1.452 206.261z" fill="#fff5f5"/><path d="m323.25 512c8.279 0 6.58-203.733 1.452-206.261l-68.702 53.036v153.225z" fill="#cfdfe6"/><path d="m400 512h-76.75l1.452-206.261 78.845 19.186c6.722 1.636 11.453 7.657 11.453 14.575v157.5c0 8.284-6.716 15-15 15z" fill="#ffb454"/><path d="m187.313 512h-75.313c-8.284 0-15-6.716-15-15v-157.5c0-6.918 4.731-12.939 11.454-14.575l78.859-19.186z" fill="#ffe278"/></g></svg>